# xmcd CD database file
#
# Track frame offsets:
#	150
#	24080
#	55335
#	124831
#	146798
#	166049
#
# Disc length: 2420 seconds
#
# Revision: 0
# Processed by: cddbd v1.5PL3 Copyright (c) Steve Scherf et al.
# Submitted via: CDex 1.51
#
DISCID=48097206
DTITLE=Tangerine Dream - Tangerine Tree - Volume 26 - Brussels 1980 - CD 1
DYEAR=1980
DGENRE=New Age
TTITLE0=Undulation
TTITLE1=Oceadium
TTITLE2=Calymba Caly
TTITLE3=Undulation (reprise)
TTITLE4=Bruparck
TTITLE5=Force Majeure (excerpt)
EXTD=YEAR: 1980
EXTT0=
EXTT1=
EXTT2=
EXTT3=
EXTT4=
EXTT5=
PLAYORDER=
